<?xml version="1.0" encoding="UTF-8"?> <!-- Generator: Adobe Illustrator 22.0.1, SVG Export Plug-In . SVG Version: 6.00 Build 0) --> <svg xmlns="http://www.w3.org/2000/svg" xmlns:xlink="http://www.w3.org/1999/xlink" id="Layer_1" x="0px" y="0px" viewBox="0 0 142.7 50.4" style="enable-background:new 0 0 142.7 50.4;" xml:space="preserve"> <style type="text/css"> .st0{fill:#FFFFFF;} </style> <g> <path class="st0" d="M21.1,25.1c1.1,0,2-0.8,2-1.2c0-0.4,0-0.4,0-0.7c0-0.4-0.1-0.7-0.3-0.8c-0.7-0.4-1.5-0.1-1.5-0.2 c0-0.2,0.3-1.1,1.1-1.1c0.3,0,0.5,0.1,0.7,0.2c0-0.2,0-0.5,0-0.7c0-1.2,0.8-2.2,0.9-2.2c0.1,0,0.9,1,0.9,2.2c0,0.3,0,0.5,0,0.7 c0.2-0.1,0.4-0.2,0.7-0.2c0.7,0,1.1,0.9,1.1,1.1c0,0.1-0.8-0.2-1.5,0.2c-0.2,0.1-0.3,0.4-0.3,0.8v0.7c0,0.5,0.5,0.8,1.6,0.6 l0.7-3.6l1.8,1.1l-0.2-4.5c-0.9-1.1-2.5-1.8-4.4-1.7c-1.6,0.1-3,0.6-4.1,1.3v2.6l-1.4,2.4l2.4-0.8V25.1z"></path> <path class="st0" d="M9.8,24.5c1.1,0.2,1.6-0.1,1.6-0.6v-0.7c0-0.4-0.1-0.7-0.3-0.8c-0.7-0.4-1.5-0.1-1.5-0.2 c0-0.2,0.3-1.1,1.1-1.1c0.3,0,0.5,0.1,0.7,0.2c0-0.2-0.1-0.5-0.1-0.7c0-1.2,0.8-2.2,0.9-2.2c0.1,0,0.9,1,0.9,2.2c0,0.3,0,0.5,0,0.7 c0.2-0.1,0.4-0.2,0.7-0.2c0.7,0,1.1,0.9,1.1,1.1c0,0.1-0.8-0.2-1.5,0.2c-0.2,0.1-0.3,0.4-0.3,0.8c0,0.3,0,0.4,0,0.7 c0,0.4,0.9,1.2,2,1.2v-3.9l2.4,0.9l-1.4-2.5v-2.6c-1-0.7-2.4-1.1-4.1-1.3c-1.8-0.1-3.4,0.6-4.4,1.7L7.3,22l1.8-1.1L9.8,24.5z"></path> <path class="st0" d="M35,42.4h-6.8v6.8h-6.8v-6.8h-6.8v-6.8h6.8v6.8h6.8v-6.8H35V42.4z M14.6,49.2H7.8v-6.8H0.9v-6.8h6.8v6.8h6.8 V49.2z M4.1,16.2c0.2-0.5,0.7-0.7,1.2-0.6c-0.3-0.3-0.4-0.7-0.2-1c0.2-0.5,0.8-0.7,1.3-0.6c0,0,0,0,0.1,0c-0.2-0.3-0.3-0.6-0.1-1 c0.2-0.5,0.8-0.7,1.3-0.5c0.1,0,0.2,0.1,0.2,0.1c-0.1-0.1-0.1-0.3-0.1-0.4c0-0.5,0.4-1,1-1c0.4,0,0.7,0.2,0.9,0.6 c0-0.5,0.5-0.9,1-0.9c0.5,0,0.9,0.4,1,0.9c0.1-0.3,0.5-0.6,0.9-0.6c0.5,0,1,0.4,1,1c0,0,0,0,0,0.1c0.2-0.3,0.5-0.5,0.8-0.5 c0.5,0,1,0.4,1,1c0,0,0,0.1,0,0.1c0.2-0.1,0.4-0.2,0.6-0.2c0,0,0,0,0.1,0c-0.1-0.2-0.1-0.4-0.1-0.6c0-0.8,0.4-1.5,1.1-1.8l0.6-1.8 l-2.2,0.8V6.6l2.2,0.8l-0.8-2.2h2.7l-0.8,2.2l2.2-0.8v2.7l-2.2-0.8l0.6,1.8c0.7,0.4,1.1,1.1,1.1,1.8c0,0.2,0,0.4-0.1,0.6 c0,0,0,0,0.1,0c0.2,0,0.5,0.1,0.6,0.2c0,0,0-0.1,0-0.1c0-0.5,0.4-1,1-1c0.4,0,0.7,0.2,0.8,0.5v-0.1c0-0.5,0.4-1,1-1 c0.4,0,0.7,0.2,0.9,0.6c0-0.5,0.5-0.9,1-0.9c0.5,0,0.9,0.4,1,0.9c0.1-0.3,0.5-0.6,0.9-0.6c0.5,0,1,0.4,1,1c0,0.1,0,0.3-0.1,0.4 c0.1-0.1,0.2-0.1,0.2-0.1c0.5-0.2,1.1,0.1,1.3,0.5c0.1,0.3,0.1,0.7-0.1,1c0,0,0,0,0.1,0c0.5-0.2,1.1,0,1.3,0.6c0.1,0.4,0,0.8-0.2,1 c0.5-0.1,1,0.1,1.2,0.6c0.2,0.5-0.1,1.1-0.6,1.3c-0.1,0-0.1,0-0.2,0.1c0.3,0.1,0.6,0.3,0.7,0.6c0.2,0.5-0.1,1.1-0.6,1.3 c-0.2,0.1-0.3,0.1-0.5,0.1l-3.3,6.1c0.1,0.1,0.2,0.3,0.2,0.5c0,0.3-0.2,0.6-0.5,0.8c0.3,0.2,0.6,0.5,0.6,0.9c0,0.3-0.2,0.6-0.4,0.8 c0.4,0.3,0.6,0.7,0.6,1.2c0,0.8-0.7,1.5-1.5,1.5c0,0-4.2-0.3-8.5-0.3c-4.2,0-8.4,0.3-8.4,0.3c-0.8,0-1.5-0.7-1.5-1.5 c0-0.4,0.2-0.8,0.4-1.1c0,0,0.1-0.1,0.2-0.1c-0.3-0.2-0.4-0.5-0.4-0.8c0-0.3,0.1-0.5,0.3-0.7c0.1-0.1,0.2-0.1,0.3-0.2 c-0.3-0.1-0.5-0.4-0.5-0.8c0-0.2,0.1-0.3,0.2-0.5l-3.3-6.1c-0.2,0-0.3,0-0.5-0.1c-0.5-0.2-0.7-0.8-0.6-1.3c0.1-0.3,0.4-0.5,0.7-0.6 c-0.1,0-0.1,0-0.2-0.1C4.1,17.2,3.9,16.7,4.1,16.2 M0,50.2h36v-50H0V50.2z"></path> <path class="st0" d="M52.1,13.3c-0.9,0-1.6-0.2-2.3-0.5c-0.7-0.3-1.3-0.8-1.8-1.3c-0.5-0.6-0.9-1.3-1.2-2.1 c-0.3-0.8-0.4-1.7-0.4-2.7V6.6c0-1,0.1-1.9,0.4-2.7c0.3-0.8,0.7-1.5,1.2-2.1c0.5-0.6,1.1-1,1.9-1.3C50.6,0.2,51.4,0,52.2,0 c1,0,1.8,0.2,2.4,0.5c0.7,0.3,1.2,0.7,1.7,1.2l-1.6,2.1c-0.4-0.4-0.8-0.7-1.2-0.9c-0.4-0.2-0.9-0.4-1.4-0.4c-0.4,0-0.8,0.1-1.2,0.3 c-0.4,0.2-0.7,0.5-1,0.8C49.7,4,49.5,4.4,49.4,5c-0.1,0.5-0.2,1.1-0.2,1.7v0.1c0,0.6,0.1,1.2,0.2,1.7C49.5,9,49.7,9.4,50,9.7 c0.3,0.4,0.6,0.6,1,0.8c0.4,0.2,0.8,0.3,1.2,0.3c0.5,0,1-0.1,1.4-0.4c0.4-0.2,0.8-0.6,1.3-1l1.6,1.9c-0.6,0.6-1.2,1.1-1.9,1.4 C53.9,13.2,53.1,13.3,52.1,13.3"></path> <path class="st0" d="M63.7,10.9c0.4,0,0.9-0.1,1.2-0.3c0.4-0.2,0.7-0.5,1-0.8c0.3-0.4,0.5-0.8,0.6-1.3c0.2-0.5,0.2-1.1,0.2-1.7V6.6 c0-0.6-0.1-1.2-0.2-1.7c-0.2-0.5-0.4-0.9-0.6-1.3c-0.3-0.4-0.6-0.6-1-0.8c-0.4-0.2-0.8-0.3-1.2-0.3c-0.5,0-0.9,0.1-1.2,0.3 c-0.4,0.2-0.7,0.5-1,0.8c-0.3,0.4-0.5,0.8-0.6,1.3c-0.2,0.5-0.2,1.1-0.2,1.7v0.1c0,0.6,0.1,1.2,0.2,1.7C61,9,61.2,9.4,61.5,9.8 c0.3,0.4,0.6,0.6,1,0.8C62.8,10.8,63.2,10.9,63.7,10.9 M63.7,13.4c-0.9,0-1.7-0.2-2.4-0.5c-0.7-0.3-1.3-0.8-1.8-1.3 c-0.5-0.6-0.9-1.3-1.2-2.1c-0.3-0.8-0.4-1.7-0.4-2.7V6.6c0-1,0.1-1.9,0.4-2.7c0.3-0.8,0.7-1.5,1.2-2.1c0.5-0.6,1.1-1,1.9-1.4 C62,0.2,62.8,0,63.7,0c0.9,0,1.7,0.2,2.4,0.5c0.7,0.3,1.3,0.8,1.8,1.4c0.5,0.6,0.9,1.3,1.2,2.1c0.3,0.8,0.4,1.7,0.4,2.7v0.2 c0,1-0.1,1.8-0.4,2.7c-0.3,0.8-0.7,1.5-1.2,2.1c-0.5,0.6-1.1,1-1.9,1.4C65.3,13.2,64.5,13.4,63.7,13.4"></path> <path class="st0" d="M76.4,13.4c-0.7,0-1.4-0.1-2-0.3c-0.6-0.2-1.1-0.5-1.5-1c-0.4-0.4-0.8-1-1-1.6c-0.2-0.7-0.4-1.4-0.4-2.3V0.2 h2.7v7.9c0,0.9,0.2,1.6,0.6,2.1c0.4,0.5,1,0.7,1.7,0.7c0.7,0,1.3-0.2,1.7-0.7c0.4-0.4,0.6-1.1,0.6-2v-8h2.7v7.9 c0,0.9-0.1,1.7-0.4,2.3c-0.2,0.7-0.6,1.2-1,1.7c-0.4,0.4-1,0.8-1.6,1C77.8,13.3,77.1,13.4,76.4,13.4"></path> </g> <polygon class="st0" points="91.2,0.2 91.2,7.8 86.2,0.2 83.8,0.2 83.8,13.2 86.4,13.2 86.4,5.3 91.5,13.2 93.8,13.2 93.8,0.2 "></polygon> <polygon class="st0" points="95.6,0.2 95.6,2.7 98.9,2.7 98.9,13.2 101.5,13.2 101.5,2.7 104.8,2.7 104.8,0.2 "></polygon> <polygon class="st0" points="106.6,0.2 106.6,13.2 115,13.2 115,10.7 109.2,10.7 109.2,7.9 114.2,7.9 114.2,5.4 109.2,5.4 109.2,2.6 114.9,2.6 114.9,0.2 "></polygon> <g> <path class="st0" d="M121.8,6.5c0.7,0,1.2-0.2,1.6-0.5c0.4-0.4,0.5-0.8,0.5-1.4v0c0-0.7-0.2-1.1-0.6-1.5c-0.4-0.3-0.9-0.5-1.6-0.5 h-1.9v3.9H121.8z M117.1,0.2h4.9c1.5,0,2.7,0.4,3.5,1.2c0.7,0.7,1.1,1.7,1.1,3v0.1c0,1-0.2,1.8-0.7,2.4c-0.4,0.6-1,1.1-1.7,1.4 l2.8,4.8h-3.1l-2.4-4.3h-1.7v4.3h-2.7V0.2z"></path> </g> <polygon class="st0" points="49.3,21.2 46.1,21.2 46.1,18.7 55.2,18.7 55.2,21.2 52,21.2 52,31.6 49.3,31.6 "></polygon> <polygon class="st0" points="57,18.7 65.4,18.7 65.4,21.1 59.7,21.1 59.7,23.9 64.7,23.9 64.7,26.3 59.7,26.3 59.7,29.2 65.5,29.2 65.5,31.6 57,31.6 "></polygon> <g> <path class="st0" d="M72.2,25c0.7,0,1.2-0.2,1.6-0.5c0.4-0.4,0.5-0.8,0.5-1.4v0c0-0.7-0.2-1.1-0.6-1.5c-0.4-0.3-0.9-0.5-1.6-0.5 h-1.9V25H72.2z M67.6,18.7h4.9c1.5,0,2.7,0.4,3.5,1.2c0.7,0.7,1.1,1.7,1.1,3V23c0,1-0.2,1.8-0.7,2.4c-0.4,0.6-1,1.1-1.7,1.4 l2.8,4.8h-3.1l-2.4-4.3h-1.7v4.3h-2.7V18.7z"></path> <path class="st0" d="M83.8,25c0.7,0,1.2-0.2,1.6-0.5c0.4-0.4,0.5-0.8,0.5-1.4v0c0-0.7-0.2-1.1-0.6-1.5c-0.4-0.3-0.9-0.5-1.6-0.5 h-1.9V25H83.8z M79.2,18.7H84c1.5,0,2.7,0.4,3.5,1.2c0.7,0.7,1.1,1.7,1.1,3V23c0,1-0.2,1.8-0.7,2.4c-0.4,0.6-1,1.1-1.7,1.4l2.8,4.8 h-3.1l-2.4-4.3h-1.7v4.3h-2.7V18.7z"></path> <path class="st0" d="M96.1,29.4c0.4,0,0.9-0.1,1.2-0.3c0.4-0.2,0.7-0.5,1-0.8c0.3-0.4,0.5-0.8,0.6-1.3c0.2-0.5,0.2-1.1,0.2-1.7 v-0.1c0-0.6-0.1-1.2-0.2-1.7c-0.2-0.5-0.4-0.9-0.6-1.3c-0.3-0.4-0.6-0.6-1-0.8C97,21.1,96.6,21,96.1,21c-0.5,0-0.9,0.1-1.2,0.3 c-0.4,0.2-0.7,0.5-1,0.8c-0.3,0.4-0.5,0.8-0.6,1.3c-0.2,0.5-0.2,1.1-0.2,1.7v0.1c0,0.6,0.1,1.2,0.2,1.7c0.2,0.5,0.4,0.9,0.6,1.3 c0.3,0.4,0.6,0.6,1,0.8C95.3,29.3,95.7,29.4,96.1,29.4 M96.1,31.9c-0.9,0-1.7-0.2-2.4-0.5c-0.7-0.3-1.3-0.8-1.8-1.3 c-0.5-0.6-0.9-1.3-1.2-2.1c-0.3-0.8-0.4-1.7-0.4-2.7v-0.2c0-1,0.1-1.9,0.4-2.7c0.3-0.8,0.7-1.5,1.2-2.1c0.5-0.6,1.1-1,1.9-1.4 c0.7-0.3,1.5-0.5,2.4-0.5c0.9,0,1.7,0.2,2.4,0.5c0.7,0.3,1.3,0.8,1.8,1.4c0.5,0.6,0.9,1.3,1.2,2.1c0.3,0.8,0.4,1.7,0.4,2.7v0.2 c0,1-0.1,1.8-0.4,2.7c-0.3,0.8-0.7,1.5-1.2,2.1c-0.5,0.6-1.1,1-1.9,1.4C97.8,31.7,97,31.9,96.1,31.9"></path> <path class="st0" d="M108.8,25c0.7,0,1.2-0.2,1.6-0.5c0.4-0.4,0.5-0.8,0.5-1.4v0c0-0.7-0.2-1.1-0.6-1.5c-0.4-0.3-0.9-0.5-1.6-0.5 h-1.9V25H108.8z M104.1,18.7h4.9c1.5,0,2.7,0.4,3.5,1.2c0.7,0.7,1.1,1.7,1.1,3V23c0,1-0.2,1.8-0.7,2.4c-0.4,0.6-1,1.1-1.7,1.4 l2.8,4.8h-3.1l-2.4-4.3h-1.7v4.3h-2.7V18.7z"></path> </g> <rect x="115.8" y="18.7" class="st0" width="2.7" height="12.9"></rect> <g> <path class="st0" d="M125,31.8c-0.8,0-1.7-0.2-2.5-0.5c-0.8-0.3-1.6-0.8-2.3-1.5l1.6-2c0.4,0.4,0.9,0.7,1.4,1 c0.5,0.3,1.1,0.4,1.8,0.4c0.5,0,0.9-0.1,1.2-0.4c0.3-0.2,0.4-0.5,0.4-0.9v0c0-0.2,0-0.3-0.1-0.4c-0.1-0.1-0.2-0.3-0.3-0.4 c-0.2-0.1-0.4-0.3-0.7-0.4c-0.3-0.1-0.7-0.3-1.1-0.5c-0.6-0.2-1.1-0.4-1.6-0.7c-0.5-0.2-0.8-0.5-1.2-0.8s-0.6-0.7-0.7-1.1 c-0.2-0.4-0.3-0.9-0.3-1.4v0c0-0.6,0.1-1.1,0.3-1.5c0.2-0.5,0.5-0.9,0.9-1.2c0.4-0.3,0.8-0.6,1.3-0.8c0.5-0.2,1.1-0.3,1.7-0.3 c0.8,0,1.5,0.1,2.2,0.4c0.7,0.3,1.4,0.7,2,1.2l-1.5,2c-0.4-0.3-0.8-0.6-1.3-0.9c-0.5-0.2-0.9-0.4-1.5-0.4c-0.5,0-0.8,0.1-1.1,0.3 c-0.3,0.2-0.4,0.5-0.4,0.8v0c0,0.2,0,0.4,0.1,0.5s0.2,0.3,0.4,0.4c0.2,0.1,0.4,0.3,0.7,0.4c0.3,0.2,0.7,0.3,1.2,0.5 c0.6,0.2,1.1,0.5,1.5,0.7c0.4,0.2,0.8,0.5,1.1,0.8c0.3,0.3,0.5,0.6,0.7,1c0.1,0.4,0.2,0.8,0.2,1.3v0c0,0.6-0.1,1.1-0.3,1.6 c-0.2,0.5-0.5,0.9-0.9,1.2c-0.4,0.3-0.8,0.6-1.4,0.8C126.2,31.7,125.6,31.8,125,31.8"></path> </g> <polygon class="st0" points="139.9,18.7 137,24 134.1,18.7 131.3,18.7 131.3,31.6 133.9,31.6 133.9,23.4 137,28.7 137,28.7 140.1,23.4 140.1,31.6 142.7,31.6 142.7,18.7 "></polygon> <g> <path class="st0" d="M51,43.8c0.7,0,1.2-0.2,1.6-0.6c0.4-0.4,0.6-0.9,0.6-1.5v0c0-0.7-0.2-1.2-0.6-1.5c-0.4-0.4-0.9-0.5-1.6-0.5 h-1.5v4.2H51z M46.8,37.2h4.3c0.7,0,1.4,0.1,2,0.3c0.6,0.2,1.1,0.5,1.5,0.9c0.4,0.4,0.7,0.8,0.9,1.4c0.2,0.5,0.3,1.2,0.3,1.9v0 c0,0.7-0.1,1.4-0.4,2c-0.3,0.6-0.6,1-1,1.4c-0.4,0.4-0.9,0.7-1.5,0.9s-1.2,0.3-1.9,0.3h-1.5v3.9h-2.7V37.2z"></path> <path class="st0" d="M63,47.9c0.4,0,0.9-0.1,1.2-0.3c0.4-0.2,0.7-0.5,1-0.8c0.3-0.4,0.5-0.8,0.6-1.3c0.2-0.5,0.2-1.1,0.2-1.7v-0.1 c0-0.6-0.1-1.2-0.2-1.7c-0.2-0.5-0.4-0.9-0.6-1.3c-0.3-0.4-0.6-0.6-1-0.8c-0.4-0.2-0.8-0.3-1.2-0.3c-0.5,0-0.9,0.1-1.2,0.3 c-0.4,0.2-0.7,0.5-1,0.8c-0.3,0.4-0.5,0.8-0.6,1.3c-0.2,0.5-0.2,1.1-0.2,1.7v0.1c0,0.6,0.1,1.2,0.2,1.7c0.2,0.5,0.4,0.9,0.6,1.3 c0.3,0.4,0.6,0.6,1,0.8C62.2,47.8,62.6,47.9,63,47.9 M63,50.4c-0.9,0-1.7-0.2-2.4-0.5s-1.3-0.8-1.8-1.3c-0.5-0.6-0.9-1.3-1.2-2.1 c-0.3-0.8-0.4-1.7-0.4-2.7v-0.2c0-1,0.1-1.9,0.4-2.7c0.3-0.8,0.7-1.5,1.2-2.1c0.5-0.6,1.1-1,1.9-1.4c0.7-0.3,1.5-0.5,2.4-0.5 c0.9,0,1.7,0.2,2.4,0.5c0.7,0.3,1.3,0.8,1.8,1.3c0.5,0.6,0.9,1.3,1.2,2.1c0.3,0.8,0.4,1.7,0.4,2.7v0.2c0,1-0.1,1.8-0.4,2.7 c-0.3,0.8-0.7,1.5-1.2,2.1c-0.5,0.6-1.1,1-1.9,1.4C64.7,50.2,63.9,50.4,63,50.4"></path> </g> <polygon class="st0" points="71,37.2 71,50.1 78.9,50.1 78.9,47.7 73.7,47.7 73.7,37.2 "></polygon> <rect x="80.8" y="37.2" class="st0" width="2.7" height="12.9"></rect> <g> <path class="st0" d="M91.4,50.3c-0.9,0-1.6-0.2-2.3-0.5c-0.7-0.3-1.3-0.8-1.8-1.3s-0.9-1.3-1.2-2.1c-0.3-0.8-0.4-1.7-0.4-2.7v-0.2 c0-1,0.1-1.9,0.4-2.7c0.3-0.8,0.7-1.5,1.2-2.1c0.5-0.6,1.1-1,1.9-1.3s1.5-0.5,2.4-0.5c1,0,1.8,0.2,2.4,0.5c0.7,0.3,1.2,0.7,1.7,1.2 l-1.6,2.1c-0.4-0.4-0.8-0.7-1.2-0.9c-0.4-0.2-0.9-0.4-1.4-0.4c-0.4,0-0.8,0.1-1.2,0.3c-0.4,0.2-0.7,0.5-1,0.8 c-0.3,0.4-0.5,0.8-0.6,1.3c-0.1,0.5-0.2,1.1-0.2,1.7v0.1c0,0.6,0.1,1.2,0.2,1.7c0.2,0.5,0.4,0.9,0.6,1.3c0.3,0.4,0.6,0.6,1,0.8 c0.4,0.2,0.8,0.3,1.2,0.3c0.5,0,1-0.1,1.4-0.4c0.4-0.2,0.8-0.6,1.3-1l1.6,1.9c-0.6,0.6-1.2,1.1-1.9,1.4 C93.2,50.1,92.4,50.3,91.4,50.3"></path> </g> <rect x="97.7" y="37.2" class="st0" width="2.7" height="12.9"></rect> <polygon class="st0" points="110.5,37.2 110.5,44.7 105.5,37.2 103.1,37.2 103.1,50.1 105.7,50.1 105.7,42.3 110.8,50.1 113.1,50.1 113.1,37.2 "></polygon> <g> <path class="st0" d="M121.2,50.3c-0.9,0-1.7-0.2-2.4-0.5c-0.7-0.3-1.4-0.7-1.9-1.3c-0.5-0.6-1-1.3-1.2-2.1 c-0.3-0.8-0.4-1.7-0.4-2.7v-0.2c0-1,0.2-1.8,0.5-2.6c0.3-0.8,0.7-1.5,1.3-2.1c0.5-0.6,1.2-1,1.9-1.4c0.7-0.3,1.5-0.5,2.4-0.5 c0.9,0,1.7,0.1,2.4,0.4c0.7,0.3,1.3,0.6,1.9,1.1l-1.6,2.1c-0.3-0.3-0.7-0.6-1.1-0.8c-0.4-0.2-0.9-0.3-1.6-0.3 c-0.5,0-0.9,0.1-1.3,0.3c-0.4,0.2-0.7,0.5-1,0.8c-0.3,0.4-0.5,0.8-0.7,1.3c-0.2,0.5-0.2,1-0.2,1.6v0.1c0,0.7,0.1,1.3,0.3,1.8 c0.2,0.5,0.4,1,0.7,1.3c0.3,0.4,0.7,0.6,1.1,0.8c0.4,0.2,0.8,0.3,1.3,0.3c0.8,0,1.4-0.2,1.9-0.5v-2.3h-2.3v-2.3h4.9v6 c-0.6,0.4-1.3,0.8-2,1.1C123,50.2,122.2,50.3,121.2,50.3"></path> </g> </svg> 